<svg width="27" height="28" viewBox="0 0 27 28" fill="none" xmlns="http://www.w3.org/2000/svg">
<path d="M22.6164 1.20301C22.1987 0.46097 21.4022 0 20.5376 0H13.5506C12.2419 0 11.1772 1.06471 11.1772 2.37342V5.53797C11.1772 6.84667 12.2419 7.91139 13.5506 7.91139H18.2975C18.7337 7.91139 19.0886 8.26629 19.0886 8.70253V14.9173C16.8074 14.2937 14.4028 14.2167 12.0913 14.6869C10.33 13.0016 7.83556 12.316 5.34458 12.9388C2.85397 13.5615 0.786932 15.594 0.195319 18.1237C-0.313436 20.2998 0.182555 22.5412 1.55629 24.2731C2.93282 26.0087 4.97854 27.0042 7.16879 27.0042C17.4966 27.0042 24.6457 23.0798 26.5627 22.1211C26.8307 21.9871 27 21.7132 27 21.4135V17.9814C27 12.1 25.4841 6.2981 22.6164 1.20301ZM25.4177 20.926C22.8475 22.2206 16.341 25.4219 7.16879 25.4219C5.46446 25.4219 3.87063 24.6448 2.7959 23.2898C1.72417 21.9385 1.33783 20.1869 1.73604 18.4839C2.1834 16.5705 3.78783 14.959 5.72833 14.4737C7.32158 14.0753 8.91889 14.3478 10.2087 15.1991C9.59183 15.4111 8.98656 15.6643 8.39727 15.959C8.00644 16.1544 7.84806 16.6296 8.04347 17.0204C8.23883 17.4112 8.71404 17.5696 9.10486 17.3742C12.8629 15.4952 17.3501 15.4951 21.1082 17.3742C21.4997 17.57 21.9746 17.4105 22.1696 17.0204C22.365 16.6296 22.2066 16.1544 21.8158 15.959C21.4404 15.7712 21.0582 15.6006 20.6709 15.4464V8.70253C20.6709 7.39383 19.6062 6.32911 18.2975 6.32911H17.5063V3.95569C17.5063 3.51877 17.1521 3.16456 16.7152 3.16456H15.1329C14.696 3.16456 14.3418 3.51877 14.3418 3.95569C14.3418 4.39261 14.696 4.74683 15.1329 4.74683H15.9241V6.32911H13.5506C13.1144 6.32911 12.7595 5.97421 12.7595 5.53797V2.37342C12.7595 1.93718 13.1144 1.58228 13.5506 1.58228H20.5376C20.8315 1.58228 21.0997 1.73433 21.2376 1.97906C23.9723 6.83776 25.4178 12.3712 25.4178 17.9814V20.926H25.4177Z" fill="#333333"/>
</svg>
