<svg width="26" height="29" viewBox="0 0 26 29" fill="none" xmlns="http://www.w3.org/2000/svg">
<path d="M2.09341 1.3664C2.13695 1.3664 2.18077 1.37031 2.22422 1.37824L14.2783 3.58369C16.0104 3.90061 17.2662 5.402 17.2662 7.16292C17.2662 11.475 17.2662 18.7176 17.2662 19.9781C17.3124 21.4653 17.729 21.7244 18.1201 22.1896C20.4426 24.952 23.3772 25.0357 24.117 25.2528C24.3527 25.3221 24.5368 25.5068 24.6048 25.7429C24.6727 25.979 24.6153 26.2335 24.4523 26.4175L24.4506 26.4194C24.04 26.8829 23.4512 27.1467 22.8347 27.1467C22.8058 27.1467 22.7768 27.1461 22.7479 27.145L18.4992 26.9741C18.383 26.9695 18.2667 26.9671 18.1504 26.9671C17.7053 26.9671 17.2606 27.0014 16.8204 27.0698L16.3006 27.1505C16.1696 27.1708 16.0387 27.1807 15.9087 27.1807C15.0945 27.1807 14.3189 26.7905 13.8351 26.1161C13.2741 25.3341 13.2914 24.3444 13.6453 23.4492C13.7384 23.2137 13.9181 22.4738 13.9181 22.4738C14.3735 20.8457 14.3023 19.1152 13.715 17.53L13.2408 16.3358C12.262 13.8703 11.9197 11.2043 12.2368 8.58234L2.14023 9.23739C2.12447 9.23839 2.10881 9.23894 2.09314 9.23894C1.90904 9.23894 1.73113 9.16898 1.59604 9.04236C1.44938 8.9049 1.36621 8.71287 1.36621 8.51192V2.09341C1.36621 1.8777 1.46204 1.67311 1.62774 1.53501C1.75955 1.42524 1.92461 1.3664 2.09341 1.3664ZM7.81688 4.56923C8.11384 4.56923 8.3751 4.35352 8.4232 4.051C8.4764 3.71578 8.24784 3.40087 7.91262 3.34758L3.64673 2.66985C3.61385 2.66456 3.58123 2.6621 3.54908 2.6621C3.25212 2.6621 2.99141 2.87809 2.94331 3.18042C2.89011 3.51565 3.11866 3.83056 3.45389 3.88385L7.71978 4.56158C7.7523 4.56677 7.78482 4.56923 7.81688 4.56923ZM9.45701 4.74695C9.79643 4.74695 10.0716 4.47176 10.0716 4.13235C10.0716 3.79293 9.79643 3.51774 9.45701 3.51774C9.1176 3.51774 8.84241 3.79293 8.84241 4.13235C8.84241 4.47185 9.1176 4.74695 9.45701 4.74695ZM2.09341 0C1.60451 0 1.12846 0.172439 0.752976 0.485435C0.274464 0.884332 0 1.47042 0 2.09341V8.51174C0 9.08827 0.241215 9.64494 0.661883 10.0392C1.05131 10.4042 1.5597 10.6052 2.09341 10.6052C2.13841 10.6052 2.18405 10.6038 2.22905 10.6009L10.7622 10.0473C10.7045 12.363 11.1147 14.6831 11.9711 16.8401L12.439 18.0189C12.9247 19.3384 12.9812 20.7514 12.6024 22.1058L12.596 22.1285L12.5904 22.1514C12.5108 22.479 12.4097 22.851 12.3733 22.9505C11.8117 24.3741 11.9398 25.8182 12.725 26.9127C13.4593 27.9362 14.6494 28.5473 15.9088 28.5473C16.1094 28.5473 16.3118 28.5317 16.5103 28.5008L17.0301 28.4201C17.3996 28.3627 17.7765 28.3337 18.1505 28.3337C18.248 28.3337 18.3469 28.3357 18.4443 28.3396L22.6929 28.5105C22.7403 28.5124 22.7876 28.5133 22.8347 28.5133C23.843 28.5133 24.8047 28.0804 25.4734 27.3256C25.9508 26.7866 26.1162 26.0544 25.9177 25.365C25.7194 24.6761 25.1901 24.1441 24.5019 23.942C24.3133 23.8866 24.1087 23.8498 23.8495 23.8032C22.7839 23.6115 20.8005 23.2548 19.1657 21.3104C19.1027 21.2354 19.0427 21.1686 18.9897 21.1096C18.763 20.8569 18.6584 20.7404 18.6325 19.9564V7.16292C18.6325 4.74577 16.9046 2.67522 14.5241 2.23961L2.47017 0.0341599C2.34619 0.0114777 2.21939 0 2.09341 0Z" fill="#333333"/>
</svg>
