<svg width="168" height="35" viewBox="0 0 168 35" fill="none" xmlns="http://www.w3.org/2000/svg">
<path d="M2 17.8091L15.8091 4L29.6182 17.8091" stroke="black" stroke-width="4.50909"/>
<path d="M2 29.6455L15.8091 15.8364L29.6182 29.6455" stroke="black" stroke-width="4.50909"/>
<circle cx="15.8091" cy="31.0545" r="3.94545" fill="black"/>
<path d="M73.76 10.2H67.928L60.896 22.056L53.864 10.2H48.032V27H52.352V15.48L59.336 27H62.456L69.44 15.48V27H73.76V10.2ZM86.3203 27.24C92.1523 27.24 96.1123 25.128 96.1123 19.944C96.1123 14.736 92.1523 12.624 86.3203 12.624C80.4643 12.624 76.5282 14.736 76.5282 19.944C76.5282 25.128 80.4643 27.24 86.3203 27.24ZM86.3203 23.808C82.5043 23.808 80.6323 22.872 80.6323 19.944C80.6323 16.992 82.5043 16.056 86.3203 16.056C90.1123 16.056 91.9843 16.992 91.9843 19.944C91.9843 22.872 90.1123 23.808 86.3203 23.808ZM111.935 12.864L106.415 24.096L100.871 12.864H96.3114L103.463 27H109.319L116.495 12.864H111.935ZM126.396 23.904C123.66 23.904 121.5 23.16 121.044 20.904H136.308C136.308 14.472 132.012 12.624 126.636 12.624C120.9 12.624 116.844 14.736 116.844 19.944C116.844 25.128 121.02 27.24 126.396 27.24C131.628 27.24 135.132 25.536 136.068 21.936H131.988C130.956 23.376 129.228 23.904 126.396 23.904ZM126.612 15.744C129.204 15.744 131.22 16.296 131.916 18.288H121.188C121.836 16.296 123.804 15.744 126.612 15.744ZM138.649 23.784V27H142.753V23.784H138.649ZM145.893 7.8V11.376H149.997V7.8H145.893ZM145.893 12.864V27H149.997V12.864H145.893ZM167.043 16.296V12.864H160.347V8.76L156.219 9.936V12.864H152.499V16.296H156.219V22.752C156.219 25.872 158.571 27.24 162.219 27.24C164.115 27.24 165.675 27.12 167.043 26.88V23.568C165.387 23.808 164.667 23.808 163.371 23.808C160.875 23.808 160.347 23.112 160.347 20.376V16.296H167.043Z" fill="black"/>
</svg>
