<svg width="13" height="20" viewBox="0 0 13 20" fill="none" xmlns="http://www.w3.org/2000/svg">
<path d="M1.97619 8.13367C1.84803 8.00551 1.6742 7.93351 1.49295 7.93351C1.3117 7.93351 1.13787 8.00551 1.00971 8.13367C0.881547 8.26184 0.809545 8.43566 0.809545 8.61692V9.7952C0.809527 11.2791 1.36069 12.7101 2.35611 13.8106C3.33243 14.89 4.66786 15.5759 6.11185 15.7418V17.949H2.67124C2.48999 17.949 2.31616 18.021 2.188 18.1491C2.05984 18.2773 1.98783 18.4511 1.98783 18.6324C1.98783 18.8136 2.05984 18.9874 2.188 19.1156C2.31616 19.2438 2.48999 19.3158 2.67124 19.3158H10.9193C11.1005 19.3158 11.2743 19.2438 11.4025 19.1156C11.5307 18.9874 11.6027 18.8136 11.6027 18.6324C11.6027 18.4511 11.5307 18.2773 11.4025 18.1491C11.2743 18.021 11.1005 17.949 10.9193 17.949H7.47866V15.7418C8.92264 15.5759 10.2581 14.89 11.2344 13.8106C12.2298 12.7101 12.781 11.2791 12.781 9.7952V8.61692C12.781 8.43566 12.709 8.26184 12.5808 8.13367C12.4526 8.00551 12.2788 7.93351 12.0976 7.93351C11.9163 7.93351 11.7425 8.00551 11.6143 8.13367C11.4861 8.26184 11.4141 8.43566 11.4141 8.61692V9.7952C11.4141 11.0202 10.9275 12.195 10.0613 13.0613C9.19509 13.9275 8.02026 14.4141 6.79525 14.4141C5.57025 14.4141 4.39541 13.9275 3.5292 13.0613C2.66299 12.195 2.17636 11.0202 2.17636 9.7952V8.61692C2.17636 8.43566 2.10436 8.26184 1.97619 8.13367Z" fill="white" stroke="white" stroke-width="0.188526"/>
<path d="M6.88963 0.275856V0.274633H6.79536C5.83286 0.274633 4.90978 0.656987 4.22918 1.33758C3.54859 2.01817 3.16623 2.94126 3.16623 3.90376V9.79521C3.16623 10.7577 3.54859 11.6808 4.22918 12.3614C4.90978 13.042 5.83286 13.4243 6.79536 13.4243C7.75787 13.4243 8.68095 13.042 9.36155 12.3614C10.0421 11.6808 10.4245 10.7577 10.4245 9.79521V3.90376C10.4245 2.94126 10.0421 2.01817 9.36155 1.33758C8.7032 0.679236 7.81796 0.299951 6.88963 0.275856ZM9.05768 3.90376V9.79521C9.05768 10.3952 8.81933 10.9706 8.39506 11.3949C7.9708 11.8192 7.39537 12.0575 6.79536 12.0575C6.19536 12.0575 5.61993 11.8192 5.19567 11.3949C4.7714 10.9706 4.53305 10.3952 4.53305 9.79521V3.90376C4.53305 3.30376 4.7714 2.72833 5.19567 2.30406C5.61993 1.8798 6.19536 1.64145 6.79536 1.64145C7.39537 1.64145 7.9708 1.8798 8.39506 2.30406C8.81933 2.72833 9.05768 3.30376 9.05768 3.90376Z" fill="white" stroke="white" stroke-width="0.188526"/>
</svg>
