<svg width="28" height="28" viewBox="0 0 28 28" fill="none" xmlns="http://www.w3.org/2000/svg">
<path d="M0.781134 6.24476C1.01169 5.80219 1.55811 5.62995 2.00164 5.8601L0.781134 6.24476ZM0.781134 6.24476C0.550518 6.68733 0.723098 7.23264 1.16651 7.46279M0.781134 6.24476L1.16651 7.46279M1.21258 7.37403C0.818137 7.1693 0.664805 6.6844 0.869816 6.29097L0.869821 6.29096C1.07484 5.89741 1.56091 5.74407 1.95558 5.94886L3.3697 6.68272C3.3697 6.68272 3.3697 6.68272 3.3697 6.68272C4.11553 7.06981 3.83462 8.19871 2.99741 8.19871C2.92819 8.19871 2.88306 8.19614 2.82937 8.18279C2.77374 8.16896 2.70464 8.14243 2.59122 8.08843C2.44948 8.02096 2.24858 7.91563 1.93274 7.75004C1.73981 7.64889 1.504 7.52526 1.21258 7.37403ZM1.21258 7.37403L1.16651 7.46279M1.21258 7.37403L1.16651 7.46279M16.1091 7.16948L16.1091 7.16947C13.4693 6.40843 10.8133 7.25279 9.20707 9.10617C8.07682 10.4103 7.744 11.903 7.69776 13.0832C7.65154 14.2629 7.89127 15.1364 7.91278 15.2119C7.96582 15.3982 7.94688 15.6083 7.86336 15.7807L7.86335 15.7807C6.22395 19.1679 6.1132 23.1968 7.74648 26.7627C7.99084 27.2962 7.5965 27.9 7.01483 27.9C6.70911 27.9 6.41723 27.7255 6.28204 27.4304C4.57015 23.6931 4.48791 19.2992 6.27477 15.3794L6.28857 15.3491L6.28148 15.3166C4.87924 8.88912 10.4257 4.09461 16.2182 5.53574L16.253 5.54439L16.2853 5.52899C19.6636 3.92105 23.2951 2.93312 27.0254 2.61046L27.0254 2.61046C27.4685 2.57204 27.8586 2.89954 27.8969 3.34135C27.9353 3.78301 27.6076 4.17252 27.1645 4.21085C21.8404 4.67138 18.0707 6.46295 16.9336 7.00336C16.7796 7.07655 16.6738 7.12679 16.6191 7.14766C16.4479 7.21292 16.2738 7.21706 16.1091 7.16948ZM18.3161 22.7463L18.3109 22.7792L18.3265 22.8087C18.3412 22.8364 18.3617 22.8823 18.389 22.9437C18.5799 23.3718 19.1059 24.5515 20.3335 25.5491C20.591 25.7584 20.8682 25.9499 21.1575 26.1183C21.5415 26.342 21.6709 26.8338 21.4471 27.2168C21.2231 27.5999 20.73 27.7294 20.3458 27.5057C19.3698 26.9373 18.5335 26.1793 17.8655 25.2605L17.7519 25.1042L17.6899 25.2872C17.4376 26.0314 17.1286 26.759 16.7628 27.4653C16.5587 27.8594 16.0729 28.0139 15.6779 27.81C15.2829 27.6062 15.1284 27.1217 15.3325 26.7278L15.2437 26.6818L15.3325 26.7278C17.2079 23.107 17.3453 19.0577 16.0049 15.4243C15.8514 15.0082 16.0648 14.5465 16.4822 14.3932L16.4822 14.3931C16.8994 14.2397 17.3623 14.4532 17.5158 14.8694C18.419 17.3179 18.7433 20.0362 18.3161 22.7463ZM2.07403 13.9689L2.04361 13.8737L2.07404 13.9689C2.49772 13.8336 2.95076 14.0667 3.08619 14.4891C3.2216 14.9114 2.98841 15.3636 2.56481 15.4988C2.25464 15.5979 2.0088 15.677 1.81234 15.7402C1.51913 15.8346 1.33591 15.8935 1.21305 15.9306C1.11038 15.9615 1.05474 15.9755 1.01466 15.9823C0.976918 15.9887 0.95157 15.9889 0.905068 15.9889C0.56416 15.9889 0.247867 15.7711 0.138524 15.4302C0.00311731 15.0079 0.236304 14.5558 0.6599 14.4205L2.07403 13.9689ZM6.65283 3.21794L6.65283 3.21793L5.91743 1.91963C5.69878 1.53356 5.83508 1.0436 6.22211 0.825274C6.60925 0.60688 7.10043 0.74308 7.31919 1.12932L8.05454 2.42769L8.05454 2.42769C8.35901 2.96516 7.96464 3.62616 7.3545 3.62616C7.0733 3.62616 6.80075 3.47916 6.65283 3.21794ZM15.1401 2.08973L15.2361 2.118L15.1401 2.08973C15.0371 2.43945 14.7163 2.66661 14.3682 2.66661C13.83 2.66661 13.4442 2.14984 13.5955 1.63652L13.8783 0.676859L13.7824 0.64859L13.8783 0.676857C14.0037 0.251409 14.4511 0.00761501 14.8778 0.132899C15.3045 0.258162 15.5483 0.704648 15.423 1.13007L15.1401 2.08973Z" fill="#333333" stroke="white" stroke-width="0.2"/>
</svg>
