<svg width="489" height="165" viewBox="0 0 489 165" fill="none" xmlns="http://www.w3.org/2000/svg">
<path d="M53.2 48L51.4136 48.8992L51.9676 50H53.2V48ZM65.936 48V50H69.2219L67.7125 47.0813L65.936 48ZM42.768 3.2L44.5445 2.28129L43.9853 1.2H42.768V3.2ZM27.216 3.2V1.2H25.9971L25.4385 2.28329L27.216 3.2ZM4.112 48L2.33446 47.0833L0.830273 50H4.112V48ZM16.784 48V50H18.0164L18.5704 48.8992L16.784 48ZM21.584 38.464V36.464H20.3516L19.7976 37.5648L21.584 38.464ZM48.4 38.464L50.1865 37.5648L49.6324 36.464H48.4V38.464ZM25.872 29.888L24.0857 28.9885L22.6257 31.888H25.872V29.888ZM35.024 11.712L36.8129 10.8176L35.0303 7.25241L33.2377 10.8125L35.024 11.712ZM44.112 29.888V31.888H47.3481L45.9009 28.9936L44.112 29.888ZM53.2 50H65.936V46H53.2V50ZM67.7125 47.0813L44.5445 2.28129L40.9915 4.1187L64.1595 48.9187L67.7125 47.0813ZM42.768 1.2H27.216V5.2H42.768V1.2ZM25.4385 2.28329L2.33446 47.0833L5.88954 48.9167L28.9935 4.1167L25.4385 2.28329ZM4.112 50H16.784V46H4.112V50ZM18.5704 48.8992L23.3705 39.3632L19.7976 37.5648L14.9976 47.1008L18.5704 48.8992ZM21.584 40.464H48.4V36.464H21.584V40.464ZM46.6136 39.3632L51.4136 48.8992L54.9865 47.1008L50.1865 37.5648L46.6136 39.3632ZM27.6583 30.7875L36.8103 12.6115L33.2377 10.8125L24.0857 28.9885L27.6583 30.7875ZM33.2351 12.6064L42.3232 30.7824L45.9009 28.9936L36.8129 10.8176L33.2351 12.6064ZM44.112 27.888H25.872V31.888H44.112V27.888ZM121.933 28.8L123.925 28.9766L124.118 26.8H121.933V28.8ZM110.221 28.8V26.8H108.497L108.242 28.505L110.221 28.8ZM110.221 22.272L108.243 22.5695L108.499 24.272H110.221V22.272ZM121.933 22.272V24.272H124.119L123.925 22.0945L121.933 22.272ZM63.8045 25.536C63.8045 33.3721 66.0374 39.7928 71.1929 44.2002C76.2848 48.5533 83.8833 50.64 93.9645 50.64V46.64C84.3337 46.64 77.8522 44.6307 73.7921 41.1598C69.7956 37.7432 67.8045 32.6119 67.8045 25.536H63.8045ZM93.9645 50.64C103.106 50.64 110.29 48.8941 115.384 45.213C120.557 41.4746 123.308 35.9344 123.925 28.9766L119.94 28.6234C119.405 34.6576 117.1 39.0374 113.041 41.971C108.903 44.9619 102.679 46.64 93.9645 46.64V50.64ZM121.933 26.8H110.221V30.8H121.933V26.8ZM108.242 28.505C107.778 31.6221 106.405 33.6125 104.236 34.9064C101.951 36.2691 98.5831 36.976 93.9645 36.976V40.976C98.8819 40.976 103.098 40.2429 106.285 38.3416C109.588 36.3715 111.575 33.2739 112.199 29.095L108.242 28.505ZM93.9645 36.976C88.3101 36.976 84.714 35.9368 82.5415 34.1629C80.4628 32.4655 79.3245 29.7863 79.3245 25.536H75.3245C75.3245 30.5017 76.6822 34.5425 80.0115 37.2611C83.247 39.9032 87.9709 40.976 93.9645 40.976V36.976ZM79.3245 25.536C79.3245 21.3149 80.448 18.6736 82.5114 17.0021C84.6741 15.2501 88.27 14.224 93.9645 14.224V10.224C87.947 10.224 83.2229 11.2779 79.9936 13.8939C76.665 16.5904 75.3245 20.6051 75.3245 25.536H79.3245ZM93.9645 14.224C98.6231 14.224 101.993 14.9172 104.269 16.259C106.424 17.5294 107.779 19.4849 108.243 22.5695L112.198 21.9745C111.574 17.8271 109.601 14.7586 106.3 12.813C103.12 10.9388 98.9059 10.224 93.9645 10.224V14.224ZM110.221 24.272H121.933V20.272H110.221V24.272ZM123.925 22.0945C123.307 15.165 120.553 9.65588 115.378 5.94301C110.285 2.2887 103.102 0.559998 93.9645 0.559998V4.56C102.683 4.56 108.908 6.22329 113.047 9.19299C117.104 12.1041 119.406 16.451 119.94 22.4495L123.925 22.0945ZM93.9645 0.559998C83.8864 0.559998 76.2895 2.62944 71.1975 6.95586C66.0392 11.3386 63.8045 17.7291 63.8045 25.536H67.8045C67.8045 18.4949 69.7938 13.3974 73.7875 10.0041C77.8475 6.55456 84.3306 4.56 93.9645 4.56V0.559998ZM177.012 3.2V1.2H175.012V3.2H177.012ZM177.012 20.736V22.736H179.012V20.736H177.012ZM140.532 20.736H138.532V22.736H140.532V20.736ZM140.532 3.2H142.532V1.2H140.532V3.2ZM129.012 3.2V1.2H127.012V3.2H129.012ZM129.012 48H127.012V50H129.012V48ZM140.532 48V50H142.532V48H140.532ZM140.532 30.464V28.464H138.532V30.464H140.532ZM177.012 30.464H179.012V28.464H177.012V30.464ZM177.012 48H175.012V50H177.012V48ZM188.532 48V50H190.532V48H188.532ZM188.532 3.2H190.532V1.2H188.532V3.2ZM175.012 3.2V20.736H179.012V3.2H175.012ZM177.012 18.736H140.532V22.736H177.012V18.736ZM142.532 20.736V3.2H138.532V20.736H142.532ZM140.532 1.2H129.012V5.2H140.532V1.2ZM127.012 3.2V48H131.012V3.2H127.012ZM129.012 50H140.532V46H129.012V50ZM142.532 48V30.464H138.532V48H142.532ZM140.532 32.464H177.012V28.464H140.532V32.464ZM175.012 30.464V48H179.012V30.464H175.012ZM177.012 50H188.532V46H177.012V50ZM190.532 48V3.2H186.532V48H190.532ZM188.532 1.2H177.012V5.2H188.532V1.2ZM208.037 3.2H210.037V1.2H208.037V3.2ZM196.517 3.2V1.2H194.517V3.2H196.517ZM196.517 48H194.517V50H196.517V48ZM208.037 48V50H210.037V48H208.037ZM208.037 1.2H196.517V5.2H208.037V1.2ZM194.517 3.2V48H198.517V3.2H194.517ZM196.517 50H208.037V46H196.517V50ZM210.037 48V3.2H206.037V48H210.037ZM263.382 12.352V14.352H265.382V12.352H263.382ZM263.382 3.2H265.382V1.2H263.382V3.2ZM216.022 3.2V1.2H214.022V3.2H216.022ZM216.022 48H214.022V50H216.022V48ZM263.382 48V50H265.382V48H263.382ZM263.382 38.848H265.382V36.848H263.382V38.848ZM227.542 38.848H225.542V40.848H227.542V38.848ZM227.542 29.76V27.76H225.542V29.76H227.542ZM263.382 29.76V31.76H265.382V29.76H263.382ZM263.382 21.44H265.382V19.44H263.382V21.44ZM227.542 21.44H225.542V23.44H227.542V21.44ZM227.542 12.352V10.352H225.542V12.352H227.542ZM265.382 12.352V3.2H261.382V12.352H265.382ZM263.382 1.2H216.022V5.2H263.382V1.2ZM214.022 3.2V48H218.022V3.2H214.022ZM216.022 50H263.382V46H216.022V50ZM265.382 48V38.848H261.382V48H265.382ZM263.382 36.848H227.542V40.848H263.382V36.848ZM229.542 38.848V29.76H225.542V38.848H229.542ZM227.542 31.76H263.382V27.76H227.542V31.76ZM265.382 29.76V21.44H261.382V29.76H265.382ZM263.382 19.44H227.542V23.44H263.382V19.44ZM229.542 21.44V12.352H225.542V21.44H229.542ZM227.542 14.352H263.382V10.352H227.542V14.352ZM317.908 3.2V1.2H316.667L316.116 2.3119L317.908 3.2ZM299.924 39.488L298.132 40.3761L299.924 43.992L301.716 40.3761L299.924 39.488ZM281.94 3.2L283.732 2.3119L283.181 1.2H281.94V3.2ZM269.012 3.2V1.2H265.734L267.233 4.11469L269.012 3.2ZM292.052 48L290.273 48.9147L290.832 50H292.052V48ZM307.796 48V50H309.016L309.575 48.9147L307.796 48ZM330.836 3.2L332.615 4.11469L334.114 1.2H330.836V3.2ZM316.116 2.3119L298.132 38.5999L301.716 40.3761L319.7 4.0881L316.116 2.3119ZM301.716 38.5999L283.732 2.3119L280.148 4.0881L298.132 40.3761L301.716 38.5999ZM281.94 1.2H269.012V5.2H281.94V1.2ZM267.233 4.11469L290.273 48.9147L293.831 47.0853L270.791 2.2853L267.233 4.11469ZM292.052 50H307.796V46H292.052V50ZM309.575 48.9147L332.615 4.11469L329.057 2.2853L306.017 47.0853L309.575 48.9147ZM330.836 1.2H317.908V5.2H330.836V1.2ZM383.829 12.352V14.352H385.829V12.352H383.829ZM383.829 3.2H385.829V1.2H383.829V3.2ZM336.47 3.2V1.2H334.47V3.2H336.47ZM336.47 48H334.47V50H336.47V48ZM383.829 48V50H385.829V48H383.829ZM383.829 38.848H385.829V36.848H383.829V38.848ZM347.99 38.848H345.99V40.848H347.99V38.848ZM347.99 29.76V27.76H345.99V29.76H347.99ZM383.829 29.76V31.76H385.829V29.76H383.829ZM383.829 21.44H385.829V19.44H383.829V21.44ZM347.99 21.44H345.99V23.44H347.99V21.44ZM347.99 12.352V10.352H345.99V12.352H347.99ZM385.829 12.352V3.2H381.829V12.352H385.829ZM383.829 1.2H336.47V5.2H383.829V1.2ZM334.47 3.2V48H338.47V3.2H334.47ZM336.47 50H383.829V46H336.47V50ZM385.829 48V38.848H381.829V48H385.829ZM383.829 36.848H347.99V40.848H383.829V36.848ZM349.99 38.848V29.76H345.99V38.848H349.99ZM347.99 31.76H383.829V27.76H347.99V31.76ZM385.829 29.76V21.44H381.829V29.76H385.829ZM383.829 19.44H347.99V23.44H383.829V19.44ZM349.99 21.44V12.352H345.99V21.44H349.99ZM347.99 14.352H383.829V10.352H347.99V14.352ZM472.178 48L470.391 48.8992L470.945 50H472.178V48ZM484.914 48V50H488.199L486.69 47.0813L484.914 48ZM461.746 3.2L463.522 2.28129L462.963 1.2H461.746V3.2ZM446.194 3.2V1.2H444.975L444.416 2.28329L446.194 3.2ZM423.09 48L421.312 47.0833L419.808 50H423.09V48ZM435.762 48V50H436.994L437.548 48.8992L435.762 48ZM440.562 38.464V36.464H439.329L438.775 37.5648L440.562 38.464ZM467.378 38.464L469.164 37.5648L468.61 36.464H467.378V38.464ZM444.85 29.888L443.063 28.9885L441.603 31.888H444.85V29.888ZM454.002 11.712L455.79 10.8176L454.008 7.25241L452.215 10.8125L454.002 11.712ZM463.09 29.888V31.888H466.326L464.878 28.9936L463.09 29.888ZM472.178 50H484.914V46H472.178V50ZM486.69 47.0813L463.522 2.28129L459.969 4.1187L483.137 48.9187L486.69 47.0813ZM461.746 1.2H446.194V5.2H461.746V1.2ZM444.416 2.28329L421.312 47.0833L424.867 48.9167L447.971 4.1167L444.416 2.28329ZM423.09 50H435.762V46H423.09V50ZM437.548 48.8992L442.348 39.3632L438.775 37.5648L433.975 47.1008L437.548 48.8992ZM440.562 40.464H467.378V36.464H440.562V40.464ZM465.591 39.3632L470.391 48.8992L473.964 47.1008L469.164 37.5648L465.591 39.3632ZM446.636 30.7875L455.788 12.6115L452.215 10.8125L443.063 28.9885L446.636 30.7875ZM452.213 12.6064L461.301 30.7824L464.878 28.9936L455.79 10.8176L452.213 12.6064ZM463.09 27.888H444.85V31.888H463.09V27.888ZM4.752 60.2V58.2H2.752V60.2H4.752ZM4.752 105H2.752V107H4.752V105ZM16.272 105V107H18.272V105H16.272ZM16.272 93.032V91.032H14.272V93.032H16.272ZM16.272 83.368H14.272V85.368H16.272V83.368ZM16.272 69.864V67.864H14.272V69.864H16.272ZM39.952 58.2H4.752V62.2H39.952V58.2ZM2.752 60.2V105H6.752V60.2H2.752ZM4.752 107H16.272V103H4.752V107ZM18.272 105V93.032H14.272V105H18.272ZM16.272 95.032H39.952V91.032H16.272V95.032ZM39.952 95.032C45.4596 95.032 50.2686 93.2945 53.7171 90.0381C57.1777 86.7703 59.104 82.126 59.104 76.648H55.104C55.104 81.154 53.5423 84.7017 50.9709 87.1299C48.3874 89.5695 44.6204 91.032 39.952 91.032V95.032ZM59.104 76.648C59.104 71.1709 57.1785 66.5127 53.7212 63.2297C50.2746 59.9568 45.4651 58.2 39.952 58.2V62.2C44.6149 62.2 48.3814 63.6752 50.9668 66.1303C53.5415 68.5752 55.104 72.1411 55.104 76.648H59.104ZM36.752 81.368H16.272V85.368H36.752V81.368ZM18.272 83.368V69.864H14.272V83.368H18.272ZM16.272 71.864H36.752V67.864H16.272V71.864ZM36.752 71.864C38.5797 71.864 40.3078 71.8988 41.6022 72.5168C42.1835 72.7944 42.6363 73.1761 42.9636 73.7358C43.3003 74.3114 43.584 75.213 43.584 76.648H47.584C47.584 74.691 47.1957 73.0486 46.4164 71.7162C45.6277 70.3679 44.5205 69.4776 43.3258 68.9072C41.0682 67.8292 38.3803 67.864 36.752 67.864V71.864ZM43.584 76.648C43.584 78.064 43.3016 78.9509 42.9678 79.5161C42.643 80.0662 42.1921 80.4442 41.6089 80.72C40.3113 81.3337 38.5792 81.368 36.752 81.368V85.368C38.3808 85.368 41.0647 85.4023 43.3191 84.336C44.5119 83.7718 45.621 82.8898 46.4122 81.5499C47.1944 80.2251 47.584 78.592 47.584 76.648H43.584ZM111.492 69.352V71.352H113.492V69.352H111.492ZM111.492 60.2H113.492V58.2H111.492V60.2ZM64.132 60.2V58.2H62.132V60.2H64.132ZM64.132 105H62.132V107H64.132V105ZM111.492 105V107H113.492V105H111.492ZM111.492 95.848H113.492V93.848H111.492V95.848ZM75.652 95.848H73.652V97.848H75.652V95.848ZM75.652 86.76V84.76H73.652V86.76H75.652ZM111.492 86.76V88.76H113.492V86.76H111.492ZM111.492 78.44H113.492V76.44H111.492V78.44ZM75.652 78.44H73.652V80.44H75.652V78.44ZM75.652 69.352V67.352H73.652V69.352H75.652ZM113.492 69.352V60.2H109.492V69.352H113.492ZM111.492 58.2H64.132V62.2H111.492V58.2ZM62.132 60.2V105H66.132V60.2H62.132ZM64.132 107H111.492V103H64.132V107ZM113.492 105V95.848H109.492V105H113.492ZM111.492 93.848H75.652V97.848H111.492V93.848ZM77.652 95.848V86.76H73.652V95.848H77.652ZM75.652 88.76H111.492V84.76H75.652V88.76ZM113.492 86.76V78.44H109.492V86.76H113.492ZM111.492 76.44H75.652V80.44H111.492V76.44ZM77.652 78.44V69.352H73.652V78.44H77.652ZM75.652 71.352H111.492V67.352H75.652V71.352ZM118.575 60.2V58.2H116.575V60.2H118.575ZM118.575 105H116.575V107H118.575V105ZM130.094 105V107H132.094V105H130.094ZM130.094 93.032V91.032H128.095V93.032H130.094ZM148.655 93.032L150.366 91.9976L149.783 91.032H148.655V93.032ZM155.887 105L154.175 106.034L154.758 107H155.887V105ZM169.454 105V107H173.048L171.154 103.946L169.454 105ZM161.199 91.688L160.466 89.827L158.235 90.705L159.499 92.7421L161.199 91.688ZM130.094 69.864V67.864H128.095V69.864H130.094ZM130.094 83.368H128.095V85.368H130.094V83.368ZM172.927 76.648C172.927 71.1709 171.001 66.5127 167.544 63.2297C164.097 59.9568 159.288 58.2 153.775 58.2V62.2C158.437 62.2 162.204 63.6752 164.789 66.1303C167.364 68.5752 168.927 72.1411 168.927 76.648H172.927ZM153.775 58.2H118.575V62.2H153.775V58.2ZM116.575 60.2V105H120.575V60.2H116.575ZM118.575 107H130.094V103H118.575V107ZM132.094 105V93.032H128.095V105H132.094ZM130.094 95.032H148.655V91.032H130.094V95.032ZM146.943 94.0664L154.175 106.034L157.598 103.966L150.366 91.9976L146.943 94.0664ZM155.887 107H169.454V103H155.887V107ZM171.154 103.946L162.898 90.6339L159.499 92.7421L167.755 106.054L171.154 103.946ZM161.931 93.549C168.758 90.8617 172.927 84.7146 172.927 76.648H168.927C168.927 83.1734 165.671 87.7783 160.466 89.827L161.931 93.549ZM130.094 71.864H150.575V67.864H130.094V71.864ZM150.575 71.864C152.402 71.864 154.13 71.8988 155.425 72.5168C156.006 72.7944 156.459 73.1761 156.786 73.7358C157.123 74.3114 157.407 75.213 157.407 76.648H161.407C161.407 74.691 161.018 73.0486 160.239 71.7162C159.45 70.3679 158.343 69.4776 157.148 68.9072C154.891 67.8292 152.203 67.864 150.575 67.864V71.864ZM157.407 76.648C157.407 78.064 157.124 78.9509 156.79 79.5161C156.465 80.0662 156.015 80.4442 155.431 80.72C154.134 81.3337 152.402 81.368 150.575 81.368V85.368C152.203 85.368 154.887 85.4023 157.142 84.336C158.334 83.7718 159.444 82.8898 160.235 81.5499C161.017 80.2251 161.407 78.592 161.407 76.648H157.407ZM150.575 81.368H130.094V85.368H150.575V81.368ZM132.094 83.368V69.864H128.095V83.368H132.094ZM224.939 69.864V71.864H226.939V69.864H224.939ZM224.939 60.2H226.939V58.2H224.939V60.2ZM177.579 60.2V58.2H175.579V60.2H177.579ZM177.579 105H175.579V107H177.579V105ZM189.1 105V107H191.1V105H189.1ZM189.1 90.984V88.984H187.1V90.984H189.1ZM221.1 90.984V92.984H223.1V90.984H221.1ZM221.1 81.256H223.1V79.256H221.1V81.256ZM189.1 81.256H187.1V83.256H189.1V81.256ZM189.1 69.864V67.864H187.1V69.864H189.1ZM226.939 69.864V60.2H222.939V69.864H226.939ZM224.939 58.2H177.579V62.2H224.939V58.2ZM175.579 60.2V105H179.579V60.2H175.579ZM177.579 107H189.1V103H177.579V107ZM191.1 105V90.984H187.1V105H191.1ZM189.1 92.984H221.1V88.984H189.1V92.984ZM223.1 90.984V81.256H219.1V90.984H223.1ZM221.1 79.256H189.1V83.256H221.1V79.256ZM191.1 81.256V69.864H187.1V81.256H191.1ZM189.1 71.864H224.939V67.864H189.1V71.864ZM279.007 69.352V71.352H281.007V69.352H279.007ZM279.007 60.2H281.007V58.2H279.007V60.2ZM231.647 60.2V58.2H229.647V60.2H231.647ZM231.647 105H229.647V107H231.647V105ZM279.007 105V107H281.007V105H279.007ZM279.007 95.848H281.007V93.848H279.007V95.848ZM243.167 95.848H241.167V97.848H243.167V95.848ZM243.167 86.76V84.76H241.167V86.76H243.167ZM279.007 86.76V88.76H281.007V86.76H279.007ZM279.007 78.44H281.007V76.44H279.007V78.44ZM243.167 78.44H241.167V80.44H243.167V78.44ZM243.167 69.352V67.352H241.167V69.352H243.167ZM281.007 69.352V60.2H277.007V69.352H281.007ZM279.007 58.2H231.647V62.2H279.007V58.2ZM229.647 60.2V105H233.647V60.2H229.647ZM231.647 107H279.007V103H231.647V107ZM281.007 105V95.848H277.007V105H281.007ZM279.007 93.848H243.167V97.848H279.007V93.848ZM245.167 95.848V86.76H241.167V95.848H245.167ZM243.167 88.76H279.007V84.76H243.167V88.76ZM281.007 86.76V78.44H277.007V86.76H281.007ZM279.007 76.44H243.167V80.44H279.007V76.44ZM245.167 78.44V69.352H241.167V78.44H245.167ZM243.167 71.352H279.007V67.352H243.167V71.352ZM341.202 85.8L343.195 85.9766L343.388 83.8H341.202V85.8ZM329.491 85.8V83.8H327.767L327.512 85.505L329.491 85.8ZM329.491 79.272L327.513 79.5695L327.769 81.272H329.491V79.272ZM341.202 79.272V81.272H343.389L343.195 79.0945L341.202 79.272ZM283.074 82.536C283.074 90.3721 285.307 96.7928 290.463 101.2C295.555 105.553 303.153 107.64 313.234 107.64V103.64C303.604 103.64 297.122 101.631 293.062 98.1598C289.066 94.7432 287.074 89.6119 287.074 82.536H283.074ZM313.234 107.64C322.376 107.64 329.56 105.894 334.654 102.213C339.827 98.4746 342.578 92.9344 343.195 85.9766L339.21 85.6234C338.675 91.6576 336.37 96.0374 332.311 98.971C328.173 101.962 321.949 103.64 313.234 103.64V107.64ZM341.202 83.8H329.491V87.8H341.202V83.8ZM327.512 85.505C327.048 88.6221 325.675 90.6125 323.506 91.9064C321.221 93.2691 317.853 93.976 313.234 93.976V97.976C318.152 97.976 322.368 97.2429 325.555 95.3416C328.858 93.3715 330.845 90.2739 331.469 86.095L327.512 85.505ZM313.234 93.976C307.58 93.976 303.984 92.9368 301.811 91.1629C299.733 89.4655 298.594 86.7863 298.594 82.536H294.594C294.594 87.5017 295.952 91.5425 299.282 94.2611C302.517 96.9032 307.241 97.976 313.234 97.976V93.976ZM298.594 82.536C298.594 78.3149 299.718 75.6736 301.781 74.0021C303.944 72.2501 307.54 71.224 313.234 71.224V67.224C307.217 67.224 302.493 68.2779 299.264 70.8939C295.935 73.5904 294.594 77.6051 294.594 82.536H298.594ZM313.234 71.224C317.893 71.224 321.263 71.9172 323.539 73.259C325.694 74.5294 327.049 76.4849 327.513 79.5695L331.468 78.9745C330.844 74.8271 328.871 71.7586 325.57 69.813C322.39 67.9388 318.176 67.224 313.234 67.224V71.224ZM329.491 81.272H341.202V77.272H329.491V81.272ZM343.195 79.0945C342.577 72.1649 339.823 66.6559 334.648 62.943C329.555 59.2887 322.372 57.56 313.234 57.56V61.56C321.953 61.56 328.178 63.2233 332.317 66.193C336.374 69.1041 338.676 73.451 339.21 79.4495L343.195 79.0945ZM313.234 57.56C303.156 57.56 295.56 59.6294 290.467 63.9559C285.309 68.3386 283.074 74.7291 283.074 82.536H287.074C287.074 75.4949 289.064 70.3974 293.057 67.0041C297.117 63.5546 303.601 61.56 313.234 61.56V57.56ZM399.807 60.2H401.807V58.2H399.807V60.2ZM344.767 60.2V58.2H342.767V60.2H344.767ZM344.767 69.864H342.767V71.864H344.767V69.864ZM366.527 69.864H368.527V67.864H366.527V69.864ZM366.527 105H364.527V107H366.527V105ZM378.047 105V107H380.047V105H378.047ZM378.047 69.864V67.864H376.047V69.864H378.047ZM399.807 69.864V71.864H401.807V69.864H399.807ZM399.807 58.2H344.767V62.2H399.807V58.2ZM342.767 60.2V69.864H346.767V60.2H342.767ZM344.767 71.864H366.527V67.864H344.767V71.864ZM364.527 69.864V105H368.527V69.864H364.527ZM366.527 107H378.047V103H366.527V107ZM380.047 105V69.864H376.047V105H380.047ZM378.047 71.864H399.807V67.864H378.047V71.864ZM401.807 69.864V60.2H397.807V69.864H401.807ZM85.2 117.2V115.2H83.8125L83.3266 116.5L85.2 117.2ZM72.016 152.464L70.1586 153.206L72.0773 158.011L73.8894 153.164L72.016 152.464ZM57.936 117.2L59.7934 116.458L59.291 115.2H57.936V117.2ZM43.792 117.2V115.2H42.4356L41.9339 116.46L43.792 117.2ZM29.776 152.4L27.9042 153.104L29.7235 157.938L31.6341 153.14L29.776 152.4ZM16.528 117.2L18.3998 116.496L17.9122 115.2H16.528V117.2ZM4.112 117.2V115.2H1.17358L2.2514 117.934L4.112 117.2ZM21.776 162L19.9154 162.734L20.4147 164H21.776V162ZM37.648 162V164H39.0112L39.5095 162.731L37.648 162ZM50.896 128.272L52.7588 127.544L50.9005 122.79L49.0345 127.541L50.896 128.272ZM64.08 162L62.2173 162.728L62.7144 164H64.08V162ZM80.016 162V164H81.3773L81.8766 162.734L80.016 162ZM97.68 117.2L99.5406 117.934L100.618 115.2H97.68V117.2ZM83.3266 116.5L70.1426 151.764L73.8894 153.164L87.0734 117.9L83.3266 116.5ZM73.8734 151.722L59.7934 116.458L56.0786 117.942L70.1586 153.206L73.8734 151.722ZM57.936 115.2H43.792V119.2H57.936V115.2ZM41.9339 116.46L27.9179 151.66L31.6341 153.14L45.6501 117.94L41.9339 116.46ZM31.6478 151.696L18.3998 116.496L14.6562 117.904L27.9042 153.104L31.6478 151.696ZM16.528 115.2H4.112V119.2H16.528V115.2ZM2.2514 117.934L19.9154 162.734L23.6366 161.266L5.9726 116.466L2.2514 117.934ZM21.776 164H37.648V160H21.776V164ZM39.5095 162.731L52.7575 129.003L49.0345 127.541L35.7865 161.269L39.5095 162.731ZM49.0333 129L62.2173 162.728L65.9427 161.272L52.7588 127.544L49.0333 129ZM64.08 164H80.016V160H64.08V164ZM81.8766 162.734L99.5406 117.934L95.8194 116.466L78.1554 161.266L81.8766 162.734ZM97.68 115.2H85.2V119.2H97.68V115.2ZM127.277 164.64C137.331 164.64 144.927 162.535 150.025 158.176C155.184 153.764 157.437 147.346 157.437 139.536H153.437C153.437 146.574 151.434 151.708 147.425 155.136C143.355 158.617 136.871 160.64 127.277 160.64V164.64ZM157.437 139.536C157.437 131.755 155.183 125.368 150.02 120.98C144.923 116.648 137.328 114.56 127.277 114.56V118.56C136.874 118.56 143.359 120.568 147.43 124.028C151.435 127.432 153.437 132.533 153.437 139.536H157.437ZM127.277 114.56C117.199 114.56 109.602 116.629 104.51 120.956C99.3517 125.339 97.117 131.729 97.117 139.536H101.117C101.117 132.495 103.106 127.397 107.1 124.004C111.16 120.555 117.643 118.56 127.277 118.56V114.56ZM97.117 139.536C97.117 147.372 99.3499 153.793 104.505 158.2C109.597 162.553 117.196 164.64 127.277 164.64V160.64C117.646 160.64 111.165 158.631 107.105 155.16C103.108 151.743 101.117 146.612 101.117 139.536H97.117ZM127.277 150.976C121.448 150.976 117.868 149.931 115.745 148.172C113.716 146.49 112.637 143.823 112.637 139.536H108.637C108.637 144.465 109.894 148.518 113.193 151.252C116.398 153.909 121.138 154.976 127.277 154.976V150.976ZM112.637 139.536C112.637 135.278 113.701 132.649 115.715 130.993C117.828 129.255 121.408 128.224 127.277 128.224V124.224C121.114 124.224 116.374 125.273 113.175 127.903C109.877 130.615 108.637 134.642 108.637 139.536H112.637ZM127.277 128.224C133.14 128.224 136.721 129.269 138.836 131.015C140.855 132.681 141.917 135.314 141.917 139.536H145.917C145.917 134.67 144.675 130.647 141.382 127.929C138.185 125.291 133.446 124.224 127.277 124.224V128.224ZM141.917 139.536C141.917 143.787 140.84 146.458 138.806 148.15C136.681 149.918 133.1 150.976 127.277 150.976V154.976C133.422 154.976 138.161 153.89 141.364 151.226C144.658 148.486 145.917 144.437 145.917 139.536H141.917ZM162.512 117.2V115.2H160.512V117.2H162.512ZM162.512 162H160.512V164H162.512V162ZM174.032 162V164H176.032V162H174.032ZM174.032 150.032V148.032H172.032V150.032H174.032ZM192.592 150.032L194.304 148.998L193.72 148.032H192.592V150.032ZM199.824 162L198.112 163.034L198.696 164H199.824V162ZM213.392 162V164H216.986L215.092 160.946L213.392 162ZM205.136 148.688L204.403 146.827L202.173 147.705L203.436 149.742L205.136 148.688ZM174.032 126.864V124.864H172.032V126.864H174.032ZM174.032 140.368H172.032V142.368H174.032V140.368ZM216.864 133.648C216.864 128.171 214.938 123.513 211.481 120.23C208.035 116.957 203.225 115.2 197.712 115.2V119.2C202.375 119.2 206.141 120.675 208.727 123.13C211.302 125.575 212.864 129.141 212.864 133.648H216.864ZM197.712 115.2H162.512V119.2H197.712V115.2ZM160.512 117.2V162H164.512V117.2H160.512ZM162.512 164H174.032V160H162.512V164ZM176.032 162V150.032H172.032V162H176.032ZM174.032 152.032H192.592V148.032H174.032V152.032ZM190.88 151.066L198.112 163.034L201.536 160.966L194.304 148.998L190.88 151.066ZM199.824 164H213.392V160H199.824V164ZM215.092 160.946L206.836 147.634L203.436 149.742L211.692 163.054L215.092 160.946ZM205.869 150.549C212.696 147.862 216.864 141.715 216.864 133.648H212.864C212.864 140.173 209.608 144.778 204.403 146.827L205.869 150.549ZM174.032 128.864H194.512V124.864H174.032V128.864ZM194.512 128.864C196.34 128.864 198.068 128.899 199.362 129.517C199.944 129.794 200.396 130.176 200.724 130.736C201.06 131.311 201.344 132.213 201.344 133.648H205.344C205.344 131.691 204.956 130.049 204.176 128.716C203.388 127.368 202.28 126.478 201.086 125.907C198.828 124.829 196.14 124.864 194.512 124.864V128.864ZM201.344 133.648C201.344 135.064 201.062 135.951 200.728 136.516C200.403 137.066 199.952 137.444 199.369 137.72C198.071 138.334 196.339 138.368 194.512 138.368V142.368C196.141 142.368 198.825 142.402 201.079 141.336C202.272 140.772 203.381 139.89 204.172 138.55C204.954 137.225 205.344 135.592 205.344 133.648H201.344ZM194.512 138.368H174.032V142.368H194.512V138.368ZM176.032 140.368V126.864H172.032V140.368H176.032ZM282.445 117.2L283.628 118.813L288.553 115.2H282.445V117.2ZM264.973 117.2V115.2H264.323L263.796 115.583L264.973 117.2ZM233.037 140.432H231.037V144.36L234.214 142.049L233.037 140.432ZM233.037 117.2H235.037V115.2H233.037V117.2ZM221.517 117.2V115.2H219.517V117.2H221.517ZM221.517 162H219.517V164H221.517V162ZM233.037 162V164H235.037V162H233.037ZM233.037 153.424L231.858 151.809L231.037 152.408V153.424H233.037ZM246.797 143.376L248.171 141.922L246.961 140.78L245.618 141.761L246.797 143.376ZM266.509 162L265.135 163.454L265.714 164H266.509V162ZM282.445 162V164H287.583L283.797 160.526L282.445 162ZM255.309 137.104L254.126 135.491L252.163 136.932L253.957 138.578L255.309 137.104ZM282.445 115.2H264.973V119.2H282.445V115.2ZM263.796 115.583L231.86 138.815L234.214 142.049L266.15 118.817L263.796 115.583ZM235.037 140.432V117.2H231.037V140.432H235.037ZM233.037 115.2H221.517V119.2H233.037V115.2ZM219.517 117.2V162H223.517V117.2H219.517ZM221.517 164H233.037V160H221.517V164ZM235.037 162V153.424H231.037V162H235.037ZM234.216 155.039L247.976 144.991L245.618 141.761L231.858 151.809L234.216 155.039ZM245.423 144.83L265.135 163.454L267.883 160.546L248.171 141.922L245.423 144.83ZM266.509 164H282.445V160H266.509V164ZM283.797 160.526L256.661 135.63L253.957 138.578L281.093 163.474L283.797 160.526ZM256.492 138.717L283.628 118.813L281.262 115.587L254.126 135.491L256.492 138.717ZM309.604 164.64C319.659 164.64 327.255 162.535 332.352 158.176C337.512 153.764 339.764 147.346 339.764 139.536H335.764C335.764 146.574 333.761 151.708 329.753 155.136C325.682 158.617 319.198 160.64 309.604 160.64V164.64ZM339.764 139.536C339.764 131.755 337.51 125.368 332.348 120.98C327.25 116.648 319.656 114.56 309.604 114.56V118.56C319.201 118.56 325.687 120.568 329.757 124.028C333.763 127.432 335.764 132.533 335.764 139.536H339.764ZM309.604 114.56C299.526 114.56 291.93 116.629 286.837 120.956C281.679 125.339 279.444 131.729 279.444 139.536H283.444C283.444 132.495 285.434 127.397 289.427 124.004C293.487 120.555 299.971 118.56 309.604 118.56V114.56ZM279.444 139.536C279.444 147.372 281.677 153.793 286.833 158.2C291.925 162.553 299.523 164.64 309.604 164.64V160.64C299.974 160.64 293.492 158.631 289.432 155.16C285.436 151.743 283.444 146.612 283.444 139.536H279.444ZM309.604 150.976C303.776 150.976 300.195 149.931 298.073 148.172C296.043 146.49 294.964 143.823 294.964 139.536H290.964C290.964 144.465 292.222 148.518 295.52 151.252C298.726 153.909 303.465 154.976 309.604 154.976V150.976ZM294.964 139.536C294.964 135.278 296.029 132.649 298.043 130.993C300.156 129.255 303.736 128.224 309.604 128.224V124.224C303.441 124.224 298.701 125.273 295.502 127.903C292.204 130.615 290.964 134.642 290.964 139.536H294.964ZM309.604 128.224C315.467 128.224 319.049 129.269 321.163 131.015C323.182 132.681 324.245 135.314 324.245 139.536H328.245C328.245 134.67 327.003 130.647 323.71 127.929C320.512 125.291 315.774 124.224 309.604 124.224V128.224ZM324.245 139.536C324.245 143.787 323.168 146.458 321.133 148.15C319.009 149.918 315.427 150.976 309.604 150.976V154.976C315.75 154.976 320.488 153.89 323.691 151.226C326.985 148.486 328.245 144.437 328.245 139.536H324.245ZM401.472 117.2H403.472V115.2H401.472V117.2ZM389.952 117.2V115.2H387.952V117.2H389.952ZM356.672 117.2H358.672V115.2H356.672V117.2ZM345.152 117.2V115.2H343.152V117.2H345.152ZM403.472 139.536V117.2H399.472V139.536H403.472ZM401.472 115.2H389.952V119.2H401.472V115.2ZM387.952 117.2V139.536H391.952V117.2H387.952ZM387.952 139.536C387.952 142.523 387.517 145.244 385.729 147.256C383.972 149.233 380.492 150.976 373.312 150.976V154.976C381.044 154.976 385.884 153.103 388.719 149.912C391.523 146.756 391.952 142.757 391.952 139.536H387.952ZM373.312 150.976C366.127 150.976 362.648 149.246 360.893 147.277C359.109 145.275 358.672 142.558 358.672 139.536H354.672C354.672 142.786 355.099 146.789 357.907 149.939C360.744 153.122 365.585 154.976 373.312 154.976V150.976ZM358.672 139.536V117.2H354.672V139.536H358.672ZM356.672 115.2H345.152V119.2H356.672V115.2ZM343.152 117.2V139.536H347.152V117.2H343.152ZM343.152 139.536C343.152 147.7 345.372 154.145 350.558 158.479C355.662 162.745 363.269 164.64 373.312 164.64V160.64C363.643 160.64 357.17 158.791 353.122 155.409C349.156 152.095 347.152 146.988 347.152 139.536H343.152ZM373.312 164.64C383.328 164.64 390.932 162.727 396.043 158.454C401.232 154.116 403.472 147.674 403.472 139.536H399.472C399.472 146.95 397.456 152.06 393.477 155.386C389.42 158.777 382.944 160.64 373.312 160.64V164.64ZM463.557 117.2H465.557V115.2H463.557V117.2ZM408.517 117.2V115.2H406.517V117.2H408.517ZM408.517 126.864H406.517V128.864H408.517V126.864ZM430.277 126.864H432.277V124.864H430.277V126.864ZM430.277 162H428.277V164H430.277V162ZM441.797 162V164H443.797V162H441.797ZM441.797 126.864V124.864H439.797V126.864H441.797ZM463.557 126.864V128.864H465.557V126.864H463.557ZM463.557 115.2H408.517V119.2H463.557V115.2ZM406.517 117.2V126.864H410.517V117.2H406.517ZM408.517 128.864H430.277V124.864H408.517V128.864ZM428.277 126.864V162H432.277V126.864H428.277ZM430.277 164H441.797V160H430.277V164ZM443.797 162V126.864H439.797V162H443.797ZM441.797 128.864H463.557V124.864H441.797V128.864ZM465.557 126.864V117.2H461.557V126.864H465.557Z" fill="black"/>
</svg>
