<svg width="21" height="15" viewBox="0 0 21 15" fill="none" xmlns="http://www.w3.org/2000/svg">
<path d="M19.988 2.81155C19.988 2.81164 19.988 2.81172 19.988 2.81181L19.988 11.8356C19.9944 12.0887 19.9288 12.3385 19.7989 12.5559C19.6687 12.7735 19.4794 12.9496 19.253 13.0638C19.2529 13.0638 19.2528 13.0639 19.2527 13.0639L19.2103 12.9797C19.0052 13.0845 18.7746 13.129 18.5452 13.1082C18.3159 13.0873 18.0971 13.0019 17.9142 12.8619L19.988 2.81155ZM19.988 2.81155C19.9898 2.56233 19.9219 2.31755 19.7921 2.10483C19.6624 1.89239 19.476 1.72036 19.2538 1.6081C19.0422 1.49475 18.8029 1.44354 18.5635 1.4604C18.3247 1.47722 18.0954 1.56107 17.9022 1.70229L15.2749 3.38131V1.4325C15.2749 1.095 15.1408 0.771321 14.9022 0.532671C14.6636 0.294021 14.3399 0.159948 14.0024 0.159948H3.39803C2.74804 0.159948 2.12467 0.418162 1.66506 0.877784C1.20545 1.33741 0.947241 1.96079 0.947241 2.61079V12.0371C0.947241 12.6871 1.20545 13.3105 1.66506 13.7701C2.12467 14.2297 2.74804 14.4879 3.39803 14.4879H14.0024C14.3399 14.4879 14.6636 14.3539 14.9022 14.1152C15.1408 13.8766 15.2749 13.5529 15.2749 13.2154V11.2677L17.8599 12.9391L17.9555 1.7801C18.1349 1.64831 18.348 1.57007 18.5701 1.55443C18.7922 1.53879 19.0142 1.58639 19.2103 1.69172C19.4172 1.79606 19.5909 1.95616 19.7116 2.15395C19.8324 2.35175 19.8954 2.57936 19.8937 2.8111H19.988V2.81155ZM13.9081 13.1211H3.39803C3.11053 13.1211 2.83481 13.0069 2.63153 12.8036C2.42824 12.6003 2.31403 12.3246 2.31403 12.0371V2.61079C2.31403 2.32329 2.42824 2.04756 2.63153 1.84427C2.83481 1.64097 3.11053 1.52676 3.39803 1.52676H13.9081V5.69201C13.9081 5.72647 13.9269 5.75819 13.9572 5.77472C13.9874 5.79125 14.0242 5.78997 14.0533 5.77137L18.6212 2.84315V11.7926C18.6204 11.792 18.6196 11.7914 18.6188 11.7908L18.619 11.7906L18.613 11.7868L14.0531 8.87642C14.0241 8.85789 13.9873 8.85667 13.9571 8.87321C13.9269 8.88976 13.9081 8.92145 13.9081 8.95587V13.1211Z" fill="white" stroke="white" stroke-width="0.188526" stroke-linecap="round" stroke-linejoin="round"/>
</svg>
